<?xml version="1.0" standalone="no"?>
<!DOCTYPE svg PUBLIC "-//W3C//DTD SVG 20010904//EN"
 "http://www.w3.org/TR/2001/REC-SVG-20010904/DTD/svg10.dtd">
<svg version="1.0" xmlns="http://www.w3.org/2000/svg"
 width="32.000000pt" height="32.000000pt" viewBox="0 0 32.000000 32.000000"
 preserveAspectRatio="xMidYMid meet">
<metadata>
Created by potrace 1.16, written by Peter Selinger 2001-2019
</metadata>
<g transform="translate(0.000000,32.000000) scale(0.016000,-0.016000)"
fill="#000000" stroke="none">
<path d="M100 1705 l0 -95 63 0 64 0 128 -427 c70 -236 128 -432 129 -436 0
-5 -16 -14 -37 -21 -113 -40 -185 -155 -174 -276 6 -71 34 -126 87 -174 56
-51 100 -67 176 -67 133 0 236 80 264 206 24 106 -23 222 -114 282 l-48 33
433 -1 c285 0 426 -4 410 -10 -88 -35 -153 -138 -154 -242 -1 -156 111 -268
268 -268 112 0 195 54 243 160 46 100 19 227 -66 303 -22 20 -49 39 -61 43
-12 3 -21 13 -21 21 0 8 47 203 105 434 58 231 105 426 105 435 0 13 -83 15
-720 15 l-719 0 -3 88 -3 87 -177 3 -178 2 0 -95z m700 -355 l0 -80 -129 0
-129 0 -20 80 -20 80 149 0 149 0 0 -80z m350 0 l0 -80 -85 0 -85 0 0 80 0 80
85 0 85 0 0 -80z m458 0 l-20 -80 -129 0 -129 0 0 80 0 80 149 0 149 0 -20
-80z m-808 -350 l0 -80 -84 0 c-93 0 -84 -7 -106 80 -6 25 -13 53 -16 63 -5
15 4 17 100 17 l106 0 0 -80z m350 0 l0 -80 -85 0 -85 0 0 80 0 80 85 0 85 0
0 -80z m386 63 c-3 -10 -10 -38 -16 -63 -22 -87 -13 -80 -106 -80 l-84 0 0 80
0 80 106 0 c96 0 105 -2 100 -17z m-938 -539 c48 -53 7 -134 -68 -134 -59 0
-93 96 -47 137 42 39 77 38 115 -3z m1026 22 c80 -33 53 -156 -34 -156 -29 0
-80 53 -80 82 0 38 36 78 78 87 1 1 18 -5 36 -13z"/>
</g>
</svg>
